# Blender v2.70 (sub 0) OBJ File: 'newanimodel.blend'
# www.blender.org
mtllib creep.mtl
o FlySnakeCar
v 1.000000 -0.448983 -1.000000
v 1.000000 -0.448983 1.000000
v -1.000000 -0.448984 1.000000
v -0.999999 -0.448984 -1.000000
v 1.000000 0.448984 -0.999999
v 0.999999 0.448984 1.000001
v -1.000000 0.448984 1.000000
v -1.000000 0.448984 -1.000000
v 1.000000 -0.448983 -1.000000
v 1.000000 -0.448983 1.000000
v -1.000000 -0.448984 1.000000
v -0.999999 -0.448984 -1.000000
v 1.000000 0.448984 -0.999999
v 0.999999 0.448984 1.000001
v -1.000000 0.448984 1.000000
v -1.000000 0.448984 -1.000000
v 1.000000 -0.448983 -1.000000
v 0.879691 -0.394967 1.000000
v -0.879691 -0.394967 1.000000
v -0.999999 -0.448984 -1.000000
v 1.000000 0.448984 -0.999999
v 0.879691 0.394967 1.000000
v -0.879692 0.394967 1.000000
v -1.000000 0.448984 -1.000000
v 1.000000 -0.448983 -1.000000
v 0.671688 -0.081865 1.278377
v -0.677723 -0.113188 1.258422
v -1.021646 -0.454997 -1.000000
v 0.874351 0.610433 -0.236538
v 0.369400 0.148676 1.201006
v -0.357433 0.139443 1.186470
v -0.880914 0.529719 -0.319620
v 0.054372 -0.095448 1.641745
v -0.043322 -0.137611 1.594727
v 0.170092 0.089176 1.646752
v -0.084795 0.102869 1.562790
v 0.726695 0.635430 -0.715992
v 0.192405 0.532109 0.861870
v -0.197881 0.528018 0.861870
v -0.700065 0.588888 -0.696384
v 0.992552 -0.394865 -1.026899
v 1.000000 -0.448983 1.000000
v 1.040296 0.490531 -1.024830
v 0.997705 0.465218 0.991473
v 1.083877 -0.186649 -0.536035
v 1.090429 -0.226725 0.512312
v 1.103154 0.272537 -0.536459
v 1.087724 0.256729 0.501519
v 1.000000 -0.448983 -1.000000
v -1.021646 -0.454997 -1.000000
v 1.000000 0.448984 -0.999999
v -1.006562 0.442844 -1.000000
v 1.000000 -0.377786 -1.629037
v -1.020450 -0.383809 -1.629037
v 1.000000 0.377786 -1.143798
v -1.007758 0.371656 -1.143798
v 0.677234 0.062349 -2.010351
v -0.685770 0.067797 -1.991305
v 0.685771 0.389038 -1.492872
v -0.684756 0.382931 -1.473826
v 0.369299 0.355120 -2.026093
v -0.376066 0.358099 -2.015677
v 0.373968 0.533771 -1.743107
v -0.376573 0.520038 -1.732691
v 0.240847 0.716500 -2.155904
v -0.248513 0.713903 -2.149283
v 0.243912 0.696897 -1.937064
v -0.247995 0.675450 -1.930443
v 0.170312 0.950930 -2.097211
v -0.178826 0.947579 -2.093400
v 0.172499 0.884603 -1.955176
v -0.176639 0.881251 -1.951366
v 0.086328 1.128008 -1.955749
v -0.095337 1.125368 -1.955743
v 0.087466 1.049783 -1.932650
v -0.094199 1.047142 -1.932643
v 0.047019 1.192367 -1.643256
v -0.057991 1.191393 -1.644432
v 0.047677 1.153308 -1.669664
v -0.057333 1.152335 -1.670839
v 0.022811 1.048844 -1.451811
v -0.035403 1.048555 -1.452606
v 0.023175 1.033376 -1.472880
v -0.035038 1.033087 -1.473675
v -0.002560 0.933878 -1.381765
v -0.010815 0.933837 -1.381878
v -0.002508 0.931685 -1.384753
v -0.010763 0.931644 -1.384865
v 0.060815 -0.119820 2.279327
v -0.036387 -0.142090 2.446710
v 0.269704 0.102930 2.081238
v -0.235279 0.115720 2.173793
v 0.476477 0.063837 2.559489
v -0.476851 0.066328 2.545482
v 0.476477 0.135398 2.443162
v -0.476850 0.127111 2.446676
v 0.284831 0.125623 2.580043
v -0.284460 0.124783 2.578745
v 0.284830 0.220867 2.544872
v -0.284461 0.220397 2.543437
v 0.087779 0.190594 2.666371
v -0.087781 0.190594 2.666371
v 0.087779 0.264537 2.639067
v -0.087781 0.264537 2.639066
v 0.690199 0.593398 0.000000
v -0.002198 0.586336 -0.690817
v -0.002773 0.529387 0.861870
v -0.694480 0.588219 -0.000000
v -0.002211 0.586269 0.000000
v 0.884610 0.661231 -0.236953
v 0.865129 0.643029 0.191730
v 1.030764 1.064102 -0.719665
v 0.986699 1.090253 0.652646
v 0.951051 1.021694 0.000001
v 2.925624 -0.117558 -0.718735
v 1.895086 0.606735 1.293358
v 3.119947 0.149895 -0.399440
v 2.257588 0.622897 1.097113
v 2.693183 0.351743 0.371828
v 2.910599 -0.148070 0.086571
v 2.296689 0.059570 0.993295
v 2.979602 -0.055782 0.196605
v 2.425277 0.054840 0.930501
v 2.709980 0.002419 0.567131
v -0.891054 0.627597 0.276562
v -0.897617 0.601110 -0.324656
v -0.930396 1.022933 0.643806
v -0.969460 0.978276 -0.723516
v -0.921787 0.986662 -0.000000
v -1.956834 1.041828 1.284717
v -3.049582 -0.123157 -0.277616
v -2.281426 1.110542 0.987592
v -3.114365 0.308923 -0.171289
v -2.624480 0.642261 0.502153
v -2.445877 0.517603 1.344269
v -3.123256 -0.043895 0.480985
v -2.601997 0.538741 1.213206
v -3.153511 0.154978 0.531357
v -2.811065 0.307420 0.929887
v 0.131043 0.254457 2.754023
v -0.132421 0.256945 2.750979
v 0.131043 0.287400 2.735601
v -0.132421 0.284927 2.735332
v 0.078079 0.266594 2.767309
v -0.079252 0.266566 2.766883
v 0.078079 0.294314 2.771660
v -0.079252 0.294394 2.771250
v 0.023621 0.270635 2.796895
v -0.024897 0.270635 2.796895
v 0.023621 0.292155 2.800272
v -0.024897 0.292155 2.800272
v 0.052569 0.267210 2.855317
v -0.054603 0.268222 2.854079
v 0.052569 0.280611 2.847823
v -0.054603 0.279605 2.847714
v 0.031025 0.272147 2.860722
v -0.032975 0.272136 2.860548
v 0.031025 0.283423 2.862492
v -0.032975 0.283455 2.862325
v 0.008872 0.273791 2.872756
v -0.010864 0.273791 2.872756
v 0.008872 0.282545 2.874130
v -0.010864 0.282545 2.874130
v 0.013741 0.273377 2.918066
v -0.016198 0.273660 2.917720
v 0.013742 0.277120 2.915972
v -0.016198 0.276839 2.915941
v 0.007723 0.274756 2.919575
v -0.010156 0.274753 2.919527
v 0.007723 0.277906 2.920070
v -0.010156 0.277915 2.920023
v 0.001534 0.275215 2.922937
v -0.003979 0.275215 2.922937
v 0.001534 0.277661 2.923321
v -0.003979 0.277661 2.923321
v -1.000000 -0.448984 1.000000
v -0.999999 -0.448984 -1.000000
v -1.000000 0.448984 1.000000
v -1.000000 0.448984 -1.000000
v -1.066399 -0.235409 0.524316
v -1.066399 -0.235409 -0.524317
v -1.066400 0.235409 0.524316
v -1.066399 0.235409 -0.524317
vn -0.000000 1.000000 -0.000000
vn -0.000000 -1.000000 0.000000
vn -1.000000 -0.000001 0.000000
vn 0.000000 -0.000000 -1.000000
vn 1.000000 0.000001 0.000000
vn -0.000000 -0.000000 1.000000
vn -0.000000 0.999635 -0.026998
vn 0.000000 -0.999636 -0.026998
vn -0.998196 -0.000001 -0.060046
vn -0.409594 -0.912268 -0.000000
vn 0.020790 -0.988990 0.146516
vn 0.787348 0.449174 -0.422287
vn -0.449470 0.893294 0.001720
vn 0.028418 0.996682 0.076277
vn -0.947788 -0.078166 0.309173
vn -0.002993 0.978259 -0.207365
vn 0.022480 0.999627 -0.015489
vn -0.466948 0.036809 0.883518
vn 0.806760 -0.513590 0.292172
vn 0.023176 -0.999729 0.002003
vn -0.006997 0.997257 0.073689
vn -0.009208 0.660097 0.751123
vn -0.002366 -0.987715 -0.156250
vn -0.852325 0.519104 -0.063818
vn 0.937228 0.347879 0.024164
vn 0.626782 0.741671 -0.238890
vn -0.976780 0.036314 -0.211147
vn 0.975773 0.189035 0.110149
vn 0.999871 0.005927 0.014954
vn 0.982396 0.009661 0.186562
vn 0.988437 -0.041629 -0.145804
vn 0.926953 -0.374938 -0.013417
vn -0.002736 0.896166 -0.443711
vn -0.983613 0.016526 0.179536
vn -0.003051 0.999384 0.034960
vn -0.999859 0.016798 0.000001
vn 1.000000 -0.000001 0.000000
vn 0.002962 -0.993653 -0.112446
vn 0.003054 0.867275 0.497819
vn -0.488902 0.745482 -0.453025
vn 0.865885 0.270319 -0.420917
vn -0.013443 -0.619592 -0.784809
vn -0.005013 0.763644 0.645618
vn -0.626578 0.675948 -0.387937
vn 0.636767 0.647214 -0.419097
vn -0.014214 -0.068585 -0.997544
vn 0.009057 0.099454 0.995001
vn -0.677292 0.724338 0.128877
vn 0.945023 0.269250 -0.185571
vn -0.010835 -0.348111 -0.937391
vn 0.012060 -0.129016 0.991569
vn -0.925152 0.338282 0.172216
vn 0.958359 0.285310 0.012134
vn -0.012870 0.236197 -0.971620
vn 0.013527 -0.929714 0.368033
vn -0.608933 0.216485 0.763109
vn 0.933272 0.330729 0.140075
vn -0.008964 0.614818 -0.788618
vn 0.013732 -0.854586 -0.519128
vn -0.969128 -0.149089 0.196373
vn 0.992205 0.048348 0.114854
vn -0.006759 0.978383 -0.206692
vn 0.013560 -0.656804 -0.753940
vn -0.993849 -0.096773 0.053850
vn 0.994745 -0.045319 0.091809
vn -0.012149 0.801319 0.598113
vn -0.004068 -0.806130 0.591725
vn -0.983760 -0.152408 0.094807
vn 0.982268 -0.142618 0.121697
vn -0.014240 0.522549 0.852490
vn 0.021091 0.999512 -0.023049
vn -0.985586 -0.169025 0.007134
vn 0.663628 -0.736888 -0.128818
vn 0.158343 -0.986601 -0.039314
vn 0.001159 0.718764 -0.695253
vn -0.463676 -0.787505 -0.406005
vn 0.724419 -0.587156 -0.361200
vn -0.010378 -0.829146 0.558935
vn 0.000308 0.907705 -0.419608
vn -0.000001 0.985640 -0.168859
vn 0.169174 0.980435 -0.100638
vn -0.001688 -0.320364 0.947293
vn 0.321188 0.776828 -0.541643
vn 0.067605 -0.864714 0.497693
vn 0.393898 -0.470895 0.789368
vn 0.000000 -0.798999 0.601333
vn -0.010273 0.997777 0.065845
vn -0.067200 0.997739 0.000094
vn 0.002817 0.999996 0.000937
vn 0.366187 0.929652 -0.040677
vn 0.784116 -0.558514 -0.270601
vn 0.869093 -0.449355 0.206778
vn -0.583477 0.810381 -0.053259
vn 0.943944 -0.188424 0.271047
vn 0.870469 0.271430 0.410620
vn -0.212372 -0.717640 -0.663243
vn -0.017736 0.998617 0.049483
vn 0.378327 0.918360 -0.116119
vn -0.314772 -0.932966 0.174622
vn 0.407179 -0.809277 0.423410
vn 0.813940 -0.580883 -0.008795
vn 0.427019 -0.173275 0.887486
vn 0.789778 0.053928 0.611018
vn -0.375332 -0.925935 -0.042085
vn -0.214270 0.975063 -0.057799
vn 0.164776 0.591612 0.789205
vn -0.972137 -0.230465 -0.042830
vn 0.822553 0.568656 -0.006050
vn -0.709627 -0.703512 0.038739
vn -0.835221 0.546260 0.063290
vn 0.143130 -0.665906 0.732177
vn 0.216946 -0.689478 -0.691053
vn -0.295910 0.955179 0.008426
vn -0.324491 -0.944810 0.045166
vn -0.674249 -0.276068 0.684963
vn -0.500041 0.545670 0.672461
vn -0.988153 -0.129449 -0.082442
vn -0.543111 0.826023 0.150718
vn 0.731070 -0.682297 -0.002566
vn -0.000001 0.991641 0.129027
vn 0.031781 0.990308 0.135202
vn -0.031179 0.990383 0.134791
vn 0.057656 -0.997860 0.030851
vn -0.057568 -0.997881 0.030324
vn 0.000001 -0.852478 0.522763
vn 0.020891 -0.695319 0.718397
vn 0.186404 -0.871550 0.453491
vn 0.443623 0.449714 -0.775213
vn 0.464370 0.874483 0.140142
vn -0.616984 0.670299 0.412346
vn 0.690142 0.353203 0.631626
vn 0.000002 0.995107 0.098804
vn 0.013519 0.994816 0.100788
vn -0.012707 0.994851 0.100552
vn 0.063888 -0.997765 0.019557
vn -0.063692 -0.997789 0.019008
vn -0.000002 -0.999136 0.041567
vn -0.237714 -0.969347 -0.062116
vn 0.187925 -0.981578 -0.034480
vn -0.351784 0.891382 0.285808
vn 0.300287 0.916179 0.265412
vn -0.775188 0.308332 0.551375
vn 0.769774 0.311546 0.557124
vn -0.258274 -0.149749 0.954395
vn 0.549680 0.407690 0.729137
vn 0.000000 -0.155063 0.987905
vn -0.470915 -0.136796 0.871508
vn 0.464877 -0.137285 0.874667
vn 0.000000 -0.999597 0.028376
vn -0.234990 -0.970710 -0.050020
vn 0.186220 -0.982095 -0.028469
vn -0.307575 0.927894 0.210739
vn 0.255891 0.946979 0.194293
vn -0.834650 0.268832 0.480716
vn 0.829998 0.272195 0.486840
vn 0.954915 -0.296879 0.000000
vn 0.990398 0.000000 0.138248
vn 0.990398 0.000000 -0.138247
vn 0.954915 0.296879 0.000000
vn -1.000000 0.000001 -0.000001
vn 0.000000 0.000001 -1.000000
vn 1.000000 0.000000 0.000000
vn -0.000000 -0.000001 1.000000
vn -0.000000 -0.999635 -0.026998
vn -0.998196 0.000001 -0.060046
vn 0.002936 -0.987195 0.159491
vn 0.567311 0.822591 -0.038758
vn 0.930955 -0.276835 0.238084
vn -0.015115 0.991959 0.125654
vn -0.622390 0.782351 -0.023627
vn -0.039972 0.992054 -0.119291
vn 0.069146 0.996480 -0.047397
vn -0.496368 0.752559 0.432751
vn 0.358904 0.683807 0.635292
vn 0.463651 -0.091562 -0.881274
vn 0.002810 0.997825 0.065857
vn -0.023439 0.652104 0.757767
vn 0.047751 -0.998090 -0.039193
vn -0.815649 0.578498 -0.007615
vn -0.004506 0.642184 0.766537
vn 0.948604 0.315899 0.018912
vn 0.064561 -0.995329 -0.071776
vn 0.311970 0.009644 0.950043
vn -0.932535 0.049449 0.357677
vn -0.750899 -0.660249 -0.014870
vn 0.999089 -0.041950 -0.007847
vn 0.983841 0.004139 0.178999
vn 0.985547 -0.052767 -0.160977
vn 0.908594 -0.417120 -0.021624
vn -0.002742 0.896200 -0.443641
vn 0.986726 -0.000001 0.162394
vn -0.004034 0.999536 0.030199
vn -0.999859 0.016798 0.000000
vn 1.000000 0.000000 0.000002
vn 0.002956 -0.993651 -0.112467
vn -0.009889 0.888481 0.458807
vn -0.855530 0.289908 -0.428978
vn 0.533876 0.710997 -0.457666
vn 0.001950 -0.653979 -0.756510
vn -0.026460 0.794262 0.606999
vn -0.644136 0.653863 -0.396927
vn 0.009922 0.097733 0.995163
vn -0.946703 0.278832 -0.161261
vn 0.752191 0.657170 0.048333
vn -0.014496 -0.342586 -0.939375
vn 0.001681 -0.112974 0.993596
vn -0.960315 0.274315 0.050471
vn 0.918104 0.364344 0.156006
vn -0.014405 0.238764 -0.970971
vn 0.004437 -0.928106 0.372289
vn -0.935479 0.314448 0.161246
vn 0.636254 0.226984 0.737332
vn -0.014512 0.619877 -0.784564
vn 0.011329 -0.855047 -0.518426
vn -0.993173 0.019516 0.115006
vn 0.974777 -0.113505 0.192163
vn -0.014236 0.978989 -0.203415
vn 0.013560 -0.656805 -0.753938
vn -0.995524 -0.063867 0.069666
vn 0.993993 -0.079311 0.075423
vn -0.014127 0.800898 0.598634
vn -0.004078 -0.806130 0.591725
vn -0.983761 -0.152377 0.094847
vn 0.982267 -0.142594 0.121731
vn -0.014230 0.522550 0.852490
vn -0.008972 0.996403 -0.084260
vn -0.695022 -0.701768 -0.156416
vn 0.847316 -0.530305 -0.028833
vn 0.399511 -0.916693 -0.008071
vn -0.008989 0.757144 -0.653186
vn -0.534270 -0.719988 -0.442915
vn 0.547624 -0.780865 -0.300596
vn 0.463876 0.802103 0.376098
vn 0.000001 0.907242 -0.420610
vn 0.000000 0.985640 -0.168860
vn -0.314467 0.780983 -0.539607
vn -0.014252 -0.458664 0.888495
vn -0.170694 0.980100 -0.101325
vn -0.400436 -0.466759 0.788535
vn -0.067312 -0.864950 0.497323
vn -0.000191 -0.799394 0.600807
vn -0.013920 0.997921 0.062924
vn -0.010278 0.998259 0.058079
vn 0.003656 0.999993 0.000096
vn 0.386506 0.917187 0.096858
vn 0.971925 -0.195215 0.131351
vn -0.210490 0.591357 0.778454
vn -0.776999 0.473228 -0.415124
vn 0.708386 -0.705822 0.002222
vn 0.660823 0.647752 0.379118
vn 0.116592 0.725295 -0.678493
vn -0.450535 -0.578402 0.680051
vn 0.378141 0.918310 -0.117121
vn 0.009695 -0.999071 -0.041980
vn 0.283637 -0.874967 0.392407
vn 0.805101 -0.593090 -0.007450
vn 0.476882 -0.114819 0.871436
vn 0.053523 -0.981554 0.183538
vn 0.866127 0.274997 0.417373
vn -0.840913 -0.474729 -0.259804
vn -0.115497 0.754428 -0.646142
vn -0.873214 -0.375483 0.310660
vn -0.727013 -0.533129 -0.432696
vn 0.866877 0.494544 -0.062851
vn -0.940325 -0.200615 0.274850
vn -0.827616 0.533190 0.175385
vn 0.285048 0.954210 -0.090726
vn -0.298901 0.185536 -0.936074
vn -0.265739 0.926785 -0.265429
vn 0.296564 -0.853306 0.428858
vn -0.637412 -0.295483 0.711615
vn -0.496790 0.540578 0.678951
vn -0.581985 -0.392716 0.712087
vn -0.988324 -0.127746 -0.083050
vn -0.724360 0.659650 0.200413
vn 0.521327 -0.842025 0.138610
vn 0.000003 0.991641 0.129030
vn 0.031776 0.990309 0.135200
vn -0.031178 0.990384 0.134787
vn 0.057661 -0.997860 0.030846
vn -0.057573 -0.997881 0.030323
vn 0.000000 -0.852479 0.522762
vn -0.242500 -0.884655 0.398221
vn -0.119904 -0.619596 0.775709
vn -0.499052 0.848969 0.173779
vn -0.474138 0.415689 -0.776141
vn -0.690686 0.352954 0.631170
vn 0.607639 0.676464 0.416139
vn -0.000007 0.995108 0.098796
vn 0.013540 0.994815 0.100801
vn -0.012720 0.994850 0.100560
vn 0.063893 -0.997765 0.019553
vn -0.063711 -0.997787 0.019010
vn 0.000001 -0.999136 0.041569
vn -0.237713 -0.969347 -0.062113
vn 0.187927 -0.981578 -0.034477
vn -0.351781 0.891385 0.285803
vn 0.300291 0.916178 0.265411
vn -0.775185 0.308343 0.551374
vn 0.769774 0.311543 0.557125
vn -0.560347 0.404252 0.722905
vn 0.207654 -0.151699 0.966368
vn 0.000000 -0.155061 0.987905
vn -0.471004 -0.136744 0.871468
vn 0.465004 -0.137276 0.874601
vn -0.000003 -0.999597 0.028374
vn -0.234993 -0.970710 -0.050005
vn 0.186188 -0.982102 -0.028446
vn -0.307570 0.927895 0.210738
vn 0.255862 0.946990 0.194281
vn -0.834659 0.268817 0.480710
vn 0.829991 0.272236 0.486828
vn 0.954915 -0.296880 0.000000
vn -0.409594 0.912268 -0.000000
vn 0.990398 0.000001 0.138247
vn 0.954915 0.296880 0.000000
usemtl FlySnakeCar
s off
f 4//1 3//1 2//1
f 6//2 7//2 8//2
f 1//3 2//3 6//3
f 2//4 3//4 7//4
f 4//5 8//5 7//5
f 8//6 4//6 1//6
f 12//1 11//1 10//1
f 14//2 15//2 16//2
f 9//3 10//3 14//3
f 10//4 11//4 15//4
f 12//5 16//5 15//5
f 16//6 12//6 9//6
f 20//7 19//7 18//7
f 22//8 23//8 24//8
f 17//9 18//9 22//9
f 18//4 19//4 23//4
f 23//10 178//10 179//10
f 24//6 20//6 17//6
f 26//11 27//11 28//11
f 39//12 108//12 129//12
f 30//13 44//13 43//13
f 31//14 36//14 35//14
f 31//15 32//15 28//15
f 29//16 51//16 52//16
f 36//17 92//17 91//17
f 27//18 34//18 36//18
f 30//19 35//19 33//19
f 27//20 26//20 33//20
f 108//21 39//21 107//21
f 30//22 38//22 107//22
f 32//23 40//23 106//23
f 105//24 114//24 112//24
f 43//25 44//25 48//25
f 30//26 26//26 42//26
f 25//27 29//27 43//27
f 26//28 25//28 41//28
f 47//29 48//29 46//29
f 42//30 46//30 48//30
f 43//31 47//31 45//31
f 42//32 41//32 45//32
f 51//33 55//33 56//33
f 32//34 52//34 50//34
f 25//6 49//6 51//6
f 28//6 50//6 49//6
f 56//35 55//35 59//35
f 52//36 56//36 54//36
f 51//37 49//37 53//37
f 50//38 54//38 53//38
f 60//39 59//39 63//39
f 56//40 60//40 58//40
f 55//41 53//41 57//41
f 54//42 58//42 57//42
f 64//43 63//43 67//43
f 60//44 64//44 62//44
f 57//45 61//45 63//45
f 57//46 58//46 62//46
f 68//47 67//47 71//47
f 64//48 68//48 66//48
f 63//49 61//49 65//49
f 62//50 66//50 65//50
f 72//51 71//51 75//51
f 68//52 72//52 70//52
f 67//53 65//53 69//53
f 66//54 70//54 69//54
f 76//55 75//55 79//55
f 72//56 76//56 74//56
f 71//57 69//57 73//57
f 70//58 74//58 73//58
f 80//59 79//59 83//59
f 76//60 80//60 78//60
f 75//61 73//61 77//61
f 74//62 78//62 77//62
f 84//63 83//63 87//63
f 80//64 84//64 82//64
f 79//65 77//65 81//65
f 78//66 82//66 81//66
f 87//67 85//67 86//67
f 84//68 88//68 86//68
f 83//69 81//69 85//69
f 81//70 82//70 86//70
f 91//71 92//71 96//71
f 36//72 34//72 90//72
f 35//73 91//73 89//73
f 33//74 89//74 90//74
f 96//75 100//75 99//75
f 92//76 90//76 94//76
f 91//77 95//77 93//77
f 89//78 93//78 94//78
f 99//79 100//79 104//79
f 103//80 104//80 151//80
f 99//81 103//81 150//81
f 93//82 97//82 98//82
f 100//83 147//83 151//83
f 98//84 102//84 149//84
f 97//85 144//85 148//85
f 97//86 101//86 102//86
f 105//87 109//87 107//87
f 37//88 106//88 109//88
f 40//89 108//89 109//89
f 114//90 119//90 117//90
f 29//91 37//91 112//91
f 30//92 111//92 113//92
f 38//93 113//93 114//93
f 30//94 29//94 110//94
f 117//95 119//95 124//95
f 110//96 112//96 117//96
f 111//97 116//97 118//97
f 113//98 118//98 119//98
f 110//99 115//99 116//99
f 120//100 122//100 124//100
f 115//101 117//101 122//101
f 116//102 121//102 123//102
f 118//103 123//103 124//103
f 115//104 120//104 121//104
f 127//105 129//105 134//105
f 31//106 39//106 127//106
f 32//107 126//107 128//107
f 108//108 40//108 128//108
f 31//109 125//109 126//109
f 132//110 134//110 139//110
f 125//111 127//111 132//111
f 128//112 126//112 131//112
f 129//113 128//113 133//113
f 126//114 125//114 130//114
f 139//115 138//115 136//115
f 130//116 132//116 137//116
f 131//117 136//117 138//117
f 133//118 138//118 139//118
f 131//119 130//119 135//119
f 150//120 151//120 163//120
f 146//121 150//121 162//121
f 147//122 159//122 163//122
f 145//123 149//123 161//123
f 144//124 156//124 160//124
f 101//125 148//125 149//125
f 93//126 140//126 144//126
f 94//127 98//127 145//127
f 96//128 143//128 147//128
f 95//129 99//129 146//129
f 96//130 94//130 141//130
f 95//131 142//131 140//131
f 162//132 163//132 175//132
f 158//133 162//133 174//133
f 159//134 171//134 175//134
f 157//135 161//135 173//135
f 156//136 168//136 172//136
f 148//137 160//137 161//137
f 140//138 152//138 156//138
f 141//139 145//139 157//139
f 143//140 155//140 159//140
f 142//141 146//141 158//141
f 143//142 141//142 153//142
f 142//143 154//143 152//143
f 165//144 169//144 171//144
f 164//145 166//145 170//145
f 174//146 175//146 173//146
f 169//147 173//147 175//147
f 168//148 170//148 174//148
f 160//149 172//149 173//149
f 152//150 164//150 168//150
f 153//151 157//151 169//151
f 155//152 167//152 171//152
f 154//153 158//153 170//153
f 155//154 153//154 165//154
f 154//155 166//155 164//155
f 179//156 178//156 182//156
f 24//6 179//6 177//6
f 19//4 176//4 178//4
f 20//6 177//6 176//6
f 181//5 183//5 182//5
f 177//157 179//157 183//157
f 176//158 180//158 182//158
f 177//159 181//159 180//159
f 1//1 4//1 2//1
f 5//2 6//2 8//2
f 5//160 1//160 6//160
f 6//161 2//161 7//161
f 3//162 4//162 7//162
f 5//163 8//163 1//163
f 9//1 12//1 10//1
f 13//2 14//2 16//2
f 13//160 9//160 14//160
f 14//161 10//161 15//161
f 11//162 12//162 15//162
f 13//163 16//163 9//163
f 17//7 20//7 18//7
f 21//164 22//164 24//164
f 21//165 17//165 22//165
f 22//161 18//161 23//161
f 24//6 23//6 179//6
f 21//163 24//163 17//163
f 25//166 26//166 28//166
f 127//167 39//167 129//167
f 29//168 30//168 43//168
f 30//169 31//169 35//169
f 27//170 31//170 28//170
f 32//171 29//171 52//171
f 35//172 36//172 91//172
f 31//173 27//173 36//173
f 26//174 30//174 33//174
f 34//175 27//175 33//175
f 109//176 108//176 107//176
f 30//177 107//177 31//177
f 32//178 106//178 29//178
f 37//179 105//179 112//179
f 107//180 39//180 31//180
f 47//181 43//181 48//181
f 106//182 37//182 29//182
f 44//183 30//183 42//183
f 41//184 25//184 43//184
f 42//185 26//185 41//185
f 45//186 47//186 46//186
f 44//187 42//187 48//187
f 41//188 43//188 45//188
f 46//189 42//189 45//189
f 52//190 51//190 56//190
f 28//6 32//6 50//6
f 29//191 25//191 51//191
f 25//6 28//6 49//6
f 60//192 56//192 59//192
f 50//193 52//193 54//193
f 55//194 51//194 53//194
f 49//195 50//195 53//195
f 64//196 60//196 63//196
f 54//197 56//197 58//197
f 59//198 55//198 57//198
f 53//199 54//199 57//199
f 68//200 64//200 67//200
f 58//201 60//201 62//201
f 59//45 57//45 63//45
f 61//46 57//46 62//46
f 72//202 68//202 71//202
f 62//203 64//203 66//203
f 67//204 63//204 65//204
f 61//205 62//205 65//205
f 76//206 72//206 75//206
f 66//207 68//207 70//207
f 71//208 67//208 69//208
f 65//209 66//209 69//209
f 80//210 76//210 79//210
f 70//211 72//211 74//211
f 75//212 71//212 73//212
f 69//213 70//213 73//213
f 84//214 80//214 83//214
f 74//215 76//215 78//215
f 79//216 75//216 77//216
f 73//217 74//217 77//217
f 88//218 84//218 87//218
f 78//219 80//219 82//219
f 83//220 79//220 81//220
f 77//221 78//221 81//221
f 88//222 87//222 86//222
f 82//223 84//223 86//223
f 87//224 83//224 85//224
f 85//225 81//225 86//225
f 95//226 91//226 96//226
f 92//227 36//227 90//227
f 33//228 35//228 89//228
f 34//229 33//229 90//229
f 95//230 96//230 99//230
f 96//231 92//231 94//231
f 89//232 91//232 93//232
f 90//233 89//233 94//233
f 103//234 99//234 104//234
f 150//235 103//235 151//235
f 146//236 99//236 150//236
f 94//237 93//237 98//237
f 104//238 100//238 151//238
f 145//239 98//239 149//239
f 101//240 97//240 148//240
f 98//241 97//241 102//241
f 38//242 105//242 107//242
f 105//243 37//243 109//243
f 106//244 40//244 109//244
f 112//245 114//245 117//245
f 110//246 29//246 112//246
f 38//247 30//247 113//247
f 105//248 38//248 114//248
f 111//249 30//249 110//249
f 122//250 117//250 124//250
f 115//251 110//251 117//251
f 113//252 111//252 118//252
f 114//253 113//253 119//253
f 111//254 110//254 116//254
f 120//255 124//255 121//255
f 120//256 115//256 122//256
f 118//257 116//257 123//257
f 124//258 123//258 121//258
f 119//259 118//259 124//259
f 116//260 115//260 121//260
f 132//261 127//261 134//261
f 125//262 31//262 127//262
f 40//263 32//263 128//263
f 129//264 108//264 128//264
f 32//265 31//265 126//265
f 137//266 132//266 139//266
f 130//267 125//267 132//267
f 133//268 128//268 131//268
f 134//269 129//269 133//269
f 131//270 126//270 130//270
f 135//271 137//271 139//271
f 135//272 130//272 137//272
f 136//273 135//273 139//273
f 133//274 131//274 138//274
f 134//275 133//275 139//275
f 136//276 131//276 135//276
f 162//277 150//277 163//277
f 158//278 146//278 162//278
f 151//279 147//279 163//279
f 157//280 145//280 161//280
f 148//281 144//281 160//281
f 102//282 101//282 149//282
f 97//283 93//283 144//283
f 141//284 94//284 145//284
f 100//285 96//285 147//285
f 142//286 95//286 146//286
f 143//287 96//287 141//287
f 93//288 95//288 140//288
f 174//289 162//289 175//289
f 170//290 158//290 174//290
f 163//291 159//291 175//291
f 169//292 157//292 173//292
f 160//293 156//293 172//293
f 149//294 148//294 161//294
f 144//295 140//295 156//295
f 153//296 141//296 157//296
f 147//297 143//297 159//297
f 154//298 142//298 158//298
f 155//299 143//299 153//299
f 140//300 142//300 152//300
f 167//301 165//301 171//301
f 168//302 164//302 170//302
f 172//303 174//303 173//303
f 171//304 169//304 175//304
f 172//305 168//305 174//305
f 161//306 160//306 173//306
f 156//307 152//307 168//307
f 165//308 153//308 169//308
f 159//309 155//309 171//309
f 166//310 154//310 170//310
f 167//311 155//311 165//311
f 152//312 154//312 164//312
f 183//313 179//313 182//313
f 20//6 24//6 177//6
f 23//4 19//4 178//4
f 19//314 20//314 176//314
f 180//162 181//162 182//162
f 181//315 177//315 183//315
f 178//158 176//158 182//158
f 176//316 177//316 180//316
